PathFileType	4	(X/Y/Z)	Patient4_TMGait_0pt2_02_right_18.trc.trc
DataRate	CameraRate	NumFrames	NumMarkers	Units	OrigDataRate	OrigDataStartFrame	OrigNumFrames
47.945205479452	47.945205479452	4	33	mm	47.945205479452	89	       141
Frame#	Time	R.Midfoot.Superior			Sacral			L.Shoulder			Chest			R.Shoulder			Neck			R.ASIS			L.ASIS			R.Thigh.Superior			R.Thigh.Lateral			R.Thigh.Inferior			R.Patella			L.Thigh.Superior			L.Thigh.Lateral			L.Thigh.Inferior			L.Patella			L.Shank.Superior			L.Shank.Lateral			L.Shank.Inferior			R.Shank.Superior			R.Shank.Lateral			R.Shank.Inferior			R.Heel			R.Midfoot.Lateral			R.Toe			L.Heel			L.Midfoot.Lateral			L.Midfoot.Superior			L.Toe			L.Elbow			L.Wrist			R.Elbow			R.Wrist			
		X1	Y1	Z1	X2	Y2	Z2	X3	Y3	Z3	X4	Y4	Z4	X5	Y5	Z5	X6	Y6	Z6	X7	Y7	Z7	X8	Y8	Z8	X9	Y9	Z9	X10	Y10	Z10	X11	Y11	Z11	X12	Y12	Z12	X13	Y13	Z13	X14	Y14	Z14	X15	Y15	Z15	X16	Y16	Z16	X17	Y17	Z17	X18	Y18	Z18	X19	Y19	Z19	X20	Y20	Z20	X21	Y21	Z21	X22	Y22	Z22	X23	Y23	Z23	X24	Y24	Z24	X25	Y25	Z25	X26	Y26	Z26	X27	Y27	Z27	X28	Y28	Z28	X29	Y29	Z29	X30	Y30	Z30	X31	Y31	Z31	X32	Y32	Z32	X33	Y33	Z33	

89	41.825428571429	964.301623698723	101.374469588185	602.131768349026	916.270647910556	1007.922092047706	481.513291412257	1046.170132437640	1425.408799377585	256.836305528851	1183.668030633448	1363.717079624561	393.378052673282	1139.965398286135	1447.790675573544	574.300308650766	1057.840424034685	1493.896128386757	409.803666944003	1157.820059898062	937.828235951912	561.314045368593	1103.898228717144	961.055021482904	292.463769473627	1151.614559916276	721.629021003341	539.446266788320	1058.055401541907	628.749134161081	618.099274952383	1109.642175026293	559.750109775310	534.363224021167	1090.075476769188	469.771195789326	547.642827039321	1173.906592136298	763.372792720314	323.567435395481	1099.313658823508	635.737488841480	263.167236839101	1195.886043471084	570.138659628764	322.103588430656	1203.753467168654	500.659056599842	328.152696258153	1182.917927967756	426.662807694043	318.993916282107	1101.068179714829	306.361293628430	268.232220742890	1165.354382721778	198.351963101643	334.488738029817	1038.409935973804	392.054703757248	564.557376443199	948.988397940016	314.578246726722	640.989203699192	958.049047336055	208.571490611477	583.834233530372	785.830136537045	69.614853344648	578.373797951248	872.453470850978	52.898131195004	647.631008717332	1077.881895250892	37.878972788591	626.544334081768	1048.529515779847	38.245095322805	374.696427327945	1121.513706520184	35.331116319696	292.949714622190	1203.026400743293	99.802150963460	318.209466479648	1331.618070462240	52.969876156658	289.167559972170	947.372893185624	1085.123428157429	160.577940819998	959.038502450808	823.743799287951	176.905222092835	1379.418232679934	1220.944484132363	668.720198719392	1601.768841107015	1316.949415727342	578.139502261172	
90	41.846285714286	961.733303463658	101.722006806076	602.264833298506	915.989978480193	1008.884379893679	475.603555797298	1048.870537364665	1426.262746787547	252.030509761876	1184.544963811350	1364.456733222018	390.285735238082	1138.769472722888	1448.674495137326	570.696861569343	1058.755469993992	1494.876187052571	405.258525806601	1156.853256813113	938.974874648023	557.824709149679	1105.265892458686	961.520468995701	288.436719826673	1151.446620799467	722.906758941065	536.903866799239	1057.529126096854	630.195162436020	615.334143132434	1110.339777435006	560.688151897215	532.472922427859	1090.987784312278	469.991064373564	546.454772930749	1173.735040623197	762.948469753388	320.037842813759	1098.154212829513	635.594353930090	260.200092378581	1194.149452571254	569.641617332238	319.442862129943	1201.609345546771	500.131086973357	325.897469524004	1180.457756742836	426.177442983286	317.168048032997	1098.057193755243	305.987616383997	267.181221638399	1161.846072795640	198.084562158637	333.928222754705	1038.173125448167	393.227651606017	563.440554404684	947.411733807771	317.139952293430	639.788960641108	956.277516552641	210.375557247709	583.505718457826	782.626169374392	72.926585872809	578.150733978806	868.988592467748	54.646699184197	647.514792747847	1074.173912004482	37.433979288835	626.654332511312	1044.355619516843	38.256287408675	374.759793516710	1117.301871573392	35.324739649289	292.995835225198	1198.888116508016	99.559813581158	318.256953282397	1327.426081465321	52.693255434665	289.148087345859	957.947068012431	1083.899165052132	152.912681650796	975.401963525316	822.770575626213	166.795926968333	1372.452686461508	1214.055448277622	667.456120931568	1600.749156454329	1298.653899411203	580.106000786427	
91	41.867142857143	959.348356029567	102.107965226513	602.423121097136	915.668682950872	1009.752195012360	469.729048003251	1051.526790455843	1427.127811007003	247.340345555768	1185.298499793957	1365.143485671266	387.306696195638	1137.426042225134	1449.414486870667	567.214860265617	1059.610594082876	1495.791522762841	400.875690842513	1155.812290597038	940.139027792900	554.335444536590	1106.543435344865	961.884843921844	284.454379484277	1151.570581966810	724.249055826588	534.450020882340	1057.426580115324	631.533451231627	612.554875053713	1111.716945699485	561.628347763810	530.593437567489	1092.697409900716	470.038439312022	545.363819943828	1173.546013308928	762.544413578404	316.592540534076	1097.025654507324	635.454915959032	257.238209506625	1192.460085895590	569.175233418196	316.689259149244	1199.523784061396	499.619906746191	323.545773673706	1178.077147161139	425.664012073230	315.284416573729	1095.114135214883	305.596832126960	266.058269269452	1158.398266001455	197.788410136439	333.317515168825	1038.591033255087	394.364526116868	562.363105023091	946.266006218219	319.920705155512	638.542758244295	954.893354382921	212.358060147506	583.195371752584	779.643090536038	76.676207746135	577.767139139272	865.568953236986	56.638991084667	647.306622029635	1070.361361560281	37.002304321742	626.799825288998	1040.186028994842	38.278811346183	374.812335347604	1113.095952305892	35.311333881590	293.029692394725	1194.780600441210	99.303205110577	318.285936065808	1323.259876108020	52.347816558299	289.126504160512	969.167812201086	1082.682931156255	145.574842317928	992.709176243845	821.990369350778	157.285278468640	1364.424301100129	1206.315133755835	666.421375416872	1598.612409802677	1277.763960888139	582.913111480773	
92	41.888000000000	957.202704544964	102.659693492097	602.568844474266	915.287021410363	1010.452526024120	463.911960085956	1054.095976847709	1427.948318451954	242.787987014352	1185.897845938327	1365.730707904383	384.452695221876	1135.906141816028	1449.960859414686	563.865642732965	1060.358935646419	1496.588973403991	396.661940494894	1154.692155940492	941.261583192131	550.856976120985	1107.725520205461	962.125791051238	280.533177730086	1152.188297063136	725.653725726730	532.023728158973	1058.090684036208	632.670024505981	609.698688219783	1114.158864158565	562.552052712896	528.631528575308	1095.646925484681	469.850556882259	544.290041141499	1173.393472225090	762.156882811167	313.242569366421	1096.047646548680	635.297081479260	254.286871562550	1190.948636279388	568.737318092109	313.877102454633	1197.647054698089	499.116939133484	321.133302488151	1175.898899762681	425.100719637626	313.372322227594	1092.342799820739	305.190724047438	264.864708770263	1155.052260780774	197.450345413961	332.681276301617	1040.037148416237	395.395287159039	561.237286856249	945.889294688888	322.964253337297	637.161400827440	954.088319380546	214.581366239329	582.833087721855	777.009062258205	81.194255211291	577.142668977150	862.238623976510	59.136963706218	646.940288654741	1066.384058263915	36.560165851489	626.982685930298	1036.026007159152	38.307099215538	374.851824865763	1108.901752268604	35.293576405394	293.050647500452	1190.701014122579	99.047181076890	318.300949226347	1319.119597582497	51.966671264296	289.104262622694	980.975494735003	1081.493617868668	138.572936457193	1010.960851450512	821.445986848284	148.428670608482	1355.284117704269	1197.793804917618	665.529768066089	1595.028766066985	1254.267225450353	586.466767500653	
